{
    "asset" : {
        "generator" : "Khronos glTF Blender I/O v1.4.40",
        "version" : "2.0"
    },
    "extensionsUsed" : [
        "KHR_materials_clearcoat"
    ],
    "scene" : 0,
    "scenes" : [
        {
            "name" : "Scene",
            "nodes" : [
                3,
                4
            ]
        }
    ],
    "nodes" : [
        {
            "mesh" : 0,
            "name" : "Dry Martini Drink",
            "translation" : [
                0,
                0.05855964869260788,
                0
            ]
        },
        {
            "mesh" : 1,
            "name" : "Olive",
            "translation" : [
                -0.0005238708108663559,
                0.0455392524600029,
                0.0022407432552427053
            ]
        },
        {
            "mesh" : 2,
            "name" : "Stick",
            "translation" : [
                0.012224951758980751,
                0.10198723524808884,
                -0.038476839661598206
            ]
        },
        {
            "children" : [
                0,
                1,
                2
            ],
            "mesh" : 3,
            "name" : "Dry Martini Glass",
            "rotation" : [
                0,
                -0.4422222971916199,
                0,
                0.8969056010246277
            ],
            "translation" : [
                -0.0005956751992926002,
                0.08240849524736404,
                -0.0037360810674726963
            ]
        },
        {
            "name" : "Material_Preview_Dummy"
        }
    ],
    "materials" : [
        {
            "alphaMode" : "BLEND",
            "doubleSided" : true,
            "name" : "Martini.001",
            "pbrMetallicRoughness" : {}
        },
        {
            "doubleSided" : true,
            "extensions" : {
                "KHR_materials_clearcoat" : {
                    "clearcoatFactor" : 0.3954545557498932,
                    "clearcoatRoughnessFactor" : 0.14363636076450348
                }
            },
            "name" : "Olive.002",
            "pbrMetallicRoughness" : {
                "baseColorFactor" : [
                    0.23455063998699188,
                    0.16202940046787262,
                    0.05951124429702759,
                    1
                ],
                "metallicFactor" : 0,
                "roughnessFactor" : 0.5181818008422852
            }
        },
        {
            "doubleSided" : true,
            "name" : "Olive.003",
            "pbrMetallicRoughness" : {
                "baseColorFactor" : [
                    0.10053403675556183,
                    0.00047040946083143353,
                    0,
                    1
                ],
                "metallicFactor" : 0,
                "roughnessFactor" : 0.4636363387107849
            }
        },
        {
            "doubleSided" : true,
            "name" : "Plastic.001",
            "pbrMetallicRoughness" : {}
        },
        {
            "alphaMode" : "BLEND",
            "name" : "Glass.001",
            "normalTexture" : {
                "index" : 0,
                "texCoord" : 0
            },
            "occlusionTexture" : {
                "index" : 1,
                "texCoord" : 0
            },
            "pbrMetallicRoughness" : {
                "baseColorTexture" : {
                    "index" : 2,
                    "texCoord" : 0
                },
                "metallicRoughnessTexture" : {
                    "index" : 1,
                    "texCoord" : 0
                }
            }
        }
    ],
    "meshes" : [
        {
            "name" : "Plane.003",
            "primitives" : [
                {
                    "attributes" : {
                        "POSITION" : 0,
                        "NORMAL" : 1,
                        "TEXCOORD_0" : 2
                    },
                    "indices" : 3,
                    "material" : 0
                }
            ]
        },
        {
            "name" : "Sphere.001",
            "primitives" : [
                {
                    "attributes" : {
                        "POSITION" : 4,
                        "NORMAL" : 5,
                        "TEXCOORD_0" : 6
                    },
                    "indices" : 7,
                    "material" : 1
                },
                {
                    "attributes" : {
                        "POSITION" : 8,
                        "NORMAL" : 9,
                        "TEXCOORD_0" : 10
                    },
                    "indices" : 11,
                    "material" : 2
                }
            ]
        },
        {
            "name" : "Cylinder.002",
            "primitives" : [
                {
                    "attributes" : {
                        "POSITION" : 12,
                        "NORMAL" : 13,
                        "TEXCOORD_0" : 14
                    },
                    "indices" : 15,
                    "material" : 3
                }
            ]
        },
        {
            "name" : "Plane.002",
            "primitives" : [
                {
                    "attributes" : {
                        "POSITION" : 16,
                        "NORMAL" : 17,
                        "TEXCOORD_0" : 18
                    },
                    "indices" : 19,
                    "material" : 4
                }
            ]
        }
    ],
    "textures" : [
        {
            "sampler" : 0,
            "source" : 0
        },
        {
            "sampler" : 0,
            "source" : 1
        },
        {
            "sampler" : 0,
            "source" : 2
        }
    ],
    "images" : [
        {
            "bufferView" : 20,
            "mimeType" : "image/png",
            "name" : "Image_2"
        },
        {
            "bufferView" : 21,
            "mimeType" : "image/png",
            "name" : "Image_1"
        },
        {
            "bufferView" : 22,
            "mimeType" : "image/png",
            "name" : "Image_0"
        }
    ],
    "accessors" : [
        {
            "bufferView" : 0,
            "componentType" : 5126,
            "count" : 110,
            "max" : [
                0.05452509969472885,
                0.023880014196038246,
                0.05452510342001915
            ],
            "min" : [
                -0.054525092244148254,
                -0.02558295615017414,
                -0.054525088518857956
            ],
            "type" : "VEC3"
        },
        {
            "bufferView" : 1,
            "componentType" : 5126,
            "count" : 110,
            "type" : "VEC3"
        },
        {
            "bufferView" : 2,
            "componentType" : 5126,
            "count" : 110,
            "type" : "VEC2"
        },
        {
            "bufferView" : 3,
            "componentType" : 5123,
            "count" : 528,
            "type" : "SCALAR"
        },
        {
            "bufferView" : 4,
            "componentType" : 5126,
            "count" : 152,
            "max" : [
                0.010883193463087082,
                0.011670297011733055,
                0.012259956449270248
            ],
            "min" : [
                -0.010883192531764507,
                -0.011670293286442757,
                -0.012677677907049656
            ],
            "type" : "VEC3"
        },
        {
            "bufferView" : 5,
            "componentType" : 5126,
            "count" : 152,
            "type" : "VEC3"
        },
        {
            "bufferView" : 6,
            "componentType" : 5126,
            "count" : 152,
            "type" : "VEC2"
        },
        {
            "bufferView" : 7,
            "componentType" : 5123,
            "count" : 720,
            "type" : "SCALAR"
        },
        {
            "bufferView" : 8,
            "componentType" : 5126,
            "count" : 33,
            "max" : [
                0.003620840609073639,
                0.008748382329940796,
                0.011230616830289364
            ],
            "min" : [
                -0.006205897778272629,
                0.002038920996710658,
                0.006341523956507444
            ],
            "type" : "VEC3"
        },
        {
            "bufferView" : 9,
            "componentType" : 5126,
            "count" : 33,
            "type" : "VEC3"
        },
        {
            "bufferView" : 10,
            "componentType" : 5126,
            "count" : 33,
            "type" : "VEC2"
        },
        {
            "bufferView" : 11,
            "componentType" : 5123,
            "count" : 48,
            "type" : "SCALAR"
        },
        {
            "bufferView" : 12,
            "componentType" : 5126,
            "count" : 178,
            "max" : [
                0.0024077515117824078,
                0.009561121463775635,
                0.04037956893444061
            ],
            "min" : [
                -0.011977695859968662,
                -0.0592474639415741,
                -0.006686157081276178
            ],
            "type" : "VEC3"
        },
        {
            "bufferView" : 13,
            "componentType" : 5126,
            "count" : 178,
            "type" : "VEC3"
        },
        {
            "bufferView" : 14,
            "componentType" : 5126,
            "count" : 178,
            "type" : "VEC2"
        },
        {
            "bufferView" : 15,
            "componentType" : 5123,
            "count" : 456,
            "type" : "SCALAR"
        },
        {
            "bufferView" : 16,
            "componentType" : 5126,
            "count" : 251,
            "max" : [
                0.06966734677553177,
                0.09342490136623383,
                0.06966734677553177
            ],
            "min" : [
                -0.06966733187437057,
                -0.06857507675886154,
                -0.06966734677553177
            ],
            "type" : "VEC3"
        },
        {
            "bufferView" : 17,
            "componentType" : 5126,
            "count" : 251,
            "type" : "VEC3"
        },
        {
            "bufferView" : 18,
            "componentType" : 5126,
            "count" : 251,
            "type" : "VEC2"
        },
        {
            "bufferView" : 19,
            "componentType" : 5123,
            "count" : 1338,
            "type" : "SCALAR"
        }
    ],
    "bufferViews" : [
        {
            "buffer" : 0,
            "byteLength" : 1320,
            "byteOffset" : 0
        },
        {
            "buffer" : 0,
            "byteLength" : 1320,
            "byteOffset" : 1320
        },
        {
            "buffer" : 0,
            "byteLength" : 880,
            "byteOffset" : 2640
        },
        {
            "buffer" : 0,
            "byteLength" : 1056,
            "byteOffset" : 3520
        },
        {
            "buffer" : 0,
            "byteLength" : 1824,
            "byteOffset" : 4576
        },
        {
            "buffer" : 0,
            "byteLength" : 1824,
            "byteOffset" : 6400
        },
        {
            "buffer" : 0,
            "byteLength" : 1216,
            "byteOffset" : 8224
        },
        {
            "buffer" : 0,
            "byteLength" : 1440,
            "byteOffset" : 9440
        },
        {
            "buffer" : 0,
            "byteLength" : 396,
            "byteOffset" : 10880
        },
        {
            "buffer" : 0,
            "byteLength" : 396,
            "byteOffset" : 11276
        },
        {
            "buffer" : 0,
            "byteLength" : 264,
            "byteOffset" : 11672
        },
        {
            "buffer" : 0,
            "byteLength" : 96,
            "byteOffset" : 11936
        },
        {
            "buffer" : 0,
            "byteLength" : 2136,
            "byteOffset" : 12032
        },
        {
            "buffer" : 0,
            "byteLength" : 2136,
            "byteOffset" : 14168
        },
        {
            "buffer" : 0,
            "byteLength" : 1424,
            "byteOffset" : 16304
        },
        {
            "buffer" : 0,
            "byteLength" : 912,
            "byteOffset" : 17728
        },
        {
            "buffer" : 0,
            "byteLength" : 3012,
            "byteOffset" : 18640
        },
        {
            "buffer" : 0,
            "byteLength" : 3012,
            "byteOffset" : 21652
        },
        {
            "buffer" : 0,
            "byteLength" : 2008,
            "byteOffset" : 24664
        },
        {
            "buffer" : 0,
            "byteLength" : 2676,
            "byteOffset" : 26672
        },
        {
            "buffer" : 0,
            "byteLength" : 569215,
            "byteOffset" : 29348
        },
        {
            "buffer" : 0,
            "byteLength" : 5357,
            "byteOffset" : 598564
        },
        {
            "buffer" : 0,
            "byteLength" : 6528,
            "byteOffset" : 603924
        }
    ],
    "samplers" : [
        {
            "magFilter" : 9729,
            "minFilter" : 9986
        }
    ],
    "buffers" : [
        {
            "byteLength" : 610452,
            "uri" : "data:application/octet-stream;base64,"
        }
    ]
}
